# xmcd
#
# Track frame offsets: 
#        150
#        16971
#        34348
#        51370
#        64965
#        84910
#        102967
#        120409
#        138468
#        156302
#        172970
#        190589
#        207482
#
# Disc length: 2953 seconds
#
# Revision: 1
# Processed by: cddbd v1.5.2PL0 Copyright (c) Steve Scherf et al.
# Submitted via: ExactAudioCopy v1.0b3
#
DISCID=af0b870d
DTITLE=Yassir - Paragraph 31
DYEAR=2008
DGENRE=HipHop
TTITLE0=Mein Leben
TTITLE1=Es ist meine Zeit (feat. Manuellsen, Harris and Josof)
TTITLE2=Teufelskreis (feat. Solo 439)
TTITLE3=Schaut mir in die Augen
TTITLE4=Paragraph 31
TTITLE5=Verlorene Seelen (feat. Sezai and Hanybal 439)
TTITLE6=Kämpfersong (feat. Jonesmann)
TTITLE7=Toys (feat. Blaze)
TTITLE8=Therapie (feat. Tone)
TTITLE9=Warum (feat. D-Flame and Jeyz)
TTITLE10=Nicht bei mir
TTITLE11=Hart aber wahr (feat. Tone and Solo 439)
TTITLE12=Knast-Rap (Remix)
EXTD=
EXTT0=
EXTT1=
EXTT2=
EXTT3=
EXTT4=
EXTT5=
EXTT6=
EXTT7=
EXTT8=
EXTT9=
EXTT10=
EXTT11=
EXTT12=
PLAYORDER=
